<?xml version="1.0" encoding="UTF-8" standalone="no"?>
<svg width="29px" height="23px" viewBox="0 0 29 23" version="1.1" xmlns="http://www.w3.org/2000/svg" xmlns:xlink="http://www.w3.org/1999/xlink" xmlns:sketch="http://www.bohemiancoding.com/sketch/ns">
    <!-- Generator: Sketch 3.3.3 (12081) - http://www.bohemiancoding.com/sketch -->
    <title>Shape Copy</title>
    <desc>Created with Sketch.</desc>
    <defs></defs>
    <g id="Welcome" stroke="none" stroke-width="1" fill="none" fill-rule="evenodd" sketch:type="MSPage">
        <g id="MUSIC-LIST-NO-DASH" sketch:type="MSArtboardGroup" transform="translate(-1325.000000, -19.000000)" fill="#FFFFFF">
            <g id="Group-Copy-7" sketch:type="MSLayerGroup">
                <path d="M1337.08273,22.8333333 L1337.33803,24.3666667 L1352.24357,24.3666667 L1349.4,32.0333333 C1348.95303,33.3037 1348.37037,34.3333333 1347.1,34.3333333 L1335.6,34.3333333 C1334.32963,34.3333333 1333.79603,33.2784 1333.3,32.0333333 L1330.2939,19 L1325.63333,19 L1325.63333,20.5333333 L1329.0611,20.5333333 L1331.76667,32.0333333 C1332.3409,34.0266667 1333.48323,35.8666667 1335.6,35.8666667 L1347.1,35.8666667 C1349.21677,35.8666667 1350.22953,34.2329 1350.93333,32.0333333 L1354,22.8333333 L1337.08273,22.8333333 L1337.08273,22.8333333 Z M1347.1,37.4 C1345.82963,37.4 1344.8,38.4296333 1344.8,39.7 C1344.8,40.9703667 1345.82963,42 1347.1,42 C1348.37037,42 1349.4,40.9703667 1349.4,39.7 C1349.4,38.4296333 1348.37037,37.4 1347.1,37.4 L1347.1,37.4 Z M1347.86667,40.4666667 L1346.33333,40.4666667 L1346.33333,38.9333333 L1347.86667,38.9333333 L1347.86667,40.4666667 L1347.86667,40.4666667 Z M1334.83333,37.4 C1333.56297,37.4 1332.53333,38.4296333 1332.53333,39.7 C1332.53333,40.9703667 1333.56297,42 1334.83333,42 C1336.1037,42 1337.13333,40.9703667 1337.13333,39.7 C1337.13333,38.4296333 1336.1037,37.4 1334.83333,37.4 L1334.83333,37.4 Z M1335.6,40.4666667 L1334.06667,40.4666667 L1334.06667,38.9333333 L1335.6,38.9333333 L1335.6,40.4666667 L1335.6,40.4666667 Z" id="Shape-Copy" sketch:type="MSShapeGroup"></path>
            </g>
        </g>
    </g>
</svg>