<?xml version="1.0" encoding="UTF-8" standalone="no"?>
<svg width="32px" height="20px" viewBox="0 0 32 20" version="1.1" xmlns="http://www.w3.org/2000/svg" xmlns:xlink="http://www.w3.org/1999/xlink" xmlns:sketch="http://www.bohemiancoding.com/sketch/ns">
    <!-- Generator: Sketch 3.3.3 (12081) - http://www.bohemiancoding.com/sketch -->
    <title>Imported Layers</title>
    <desc>Created with Sketch.</desc>
    <defs></defs>
    <g id="Welcome" stroke="none" stroke-width="1" fill="none" fill-rule="evenodd" sketch:type="MSPage">
        <g id="MUSIC-LIST-NO-DASH" sketch:type="MSArtboardGroup" transform="translate(-478.000000, -18.000000)" fill="#FFFFFF" opacity="0.4">
            <g id="Group-Copy-7" sketch:type="MSLayerGroup">
                <g id="Imported-Layers" transform="translate(478.965517, 17.685567)" sketch:type="MSShapeGroup">
                    <path d="M15.245877,12.70387 C12.6871285,12.70387 10.6614525,10.474011 10.6614525,7.60704953 C10.6614525,4.74008803 12.6871285,2.51022909 15.245877,2.51022909 C17.8046256,2.51022909 19.8303016,4.74008803 19.8303016,7.60704953 C19.9369161,10.474011 17.8046256,12.70387 15.245877,12.70387 L15.245877,12.70387 Z M15.245877,4.20916924 C13.7532737,4.20916924 12.3672849,5.69574186 12.3672849,7.60704953 C12.3672849,9.51835719 13.5400447,11.0049298 15.245877,11.0049298 C16.9517094,11.0049298 18.1244692,9.51835719 18.1244692,7.60704953 C18.2310837,5.80192562 16.8450949,4.20916924 15.245877,4.20916924 L15.245877,4.20916924 Z" id="Fill-1"></path>
                    <path d="M17.1649385,10.474011 L17.4847821,10.474011 C20.2567597,10.474011 22.3890502,12.70387 22.3890502,15.3584639 L22.3890502,18.9687117 C22.3890502,19.4996305 22.0692066,19.8181818 21.536134,19.8181818 C21.0030614,19.8181818 20.6832178,19.4996305 20.6832178,18.9687117 L20.6832178,15.3584639 C20.6832178,13.6595238 19.1906145,12.1729512 17.4847821,12.1729512 L17.1649385,12.1729512 L17.1649385,10.474011" id="Fill-2"></path>
                    <path d="M13.4334301,12.1729512 L13.1135866,12.1729512 C11.4077542,12.1729512 9.91515081,13.6595238 9.91515081,15.3584639 L9.91515081,18.9687117 C9.91515081,19.4996305 9.59530723,19.8181818 9.06223461,19.8181818 C8.52916198,19.8181818 8.20931841,19.4996305 8.20931841,18.9687117 L8.20931841,15.3584639 C8.20931841,12.5976862 10.4482234,10.474011 13.1135866,10.474011 L13.4334301,10.474011 L13.4334301,12.1729512" id="Fill-3"></path>
                    <path d="M24.6279552,9.30598967 C22.6022793,9.30598967 20.6832178,7.39468201 20.6832178,5.05863931 C20.6832178,2.72259661 22.3890502,0.811288947 24.6279552,0.811288947 C26.8668603,0.811288947 28.5726926,2.72259661 28.5726926,5.05863931 C28.5726926,7.39468201 26.7602457,9.30598967 24.6279552,9.30598967 L24.6279552,9.30598967 Z M24.6279552,2.51022909 C23.4551955,2.51022909 22.3890502,3.67825044 22.3890502,5.05863931 C22.3890502,6.43902818 23.4551955,7.60704953 24.6279552,7.60704953 C25.800715,7.60704953 26.8668603,6.43902818 26.8668603,5.05863931 C26.8668603,3.67825044 25.9073295,2.51022909 24.6279552,2.51022909 L24.6279552,2.51022909 Z" id="Fill-4"></path>
                    <path d="M26.2271731,7.28849825 L26.5470167,7.28849825 C28.7859217,7.28849825 30.5983686,9.19980591 30.5983686,11.3234811 L30.5983686,14.1904426 C30.5983686,14.7213614 30.278525,15.0399127 29.7454524,15.0399127 C29.2123798,15.0399127 28.8925362,14.7213614 28.8925362,14.1904426 L28.8925362,11.3234811 C28.8925362,9.94309223 27.826391,8.98743839 26.5470167,8.98743839 L26.2271731,8.98743839 L26.2271731,7.28849825" id="Fill-5"></path>
                    <path d="M23.1353519,8.98743839 L22.8155083,8.98743839 C21.4295195,8.98743839 20.4699888,10.049276 20.4699888,11.3234811 C20.4699888,11.8543999 20.1501452,12.1729512 19.6170726,12.1729512 C19.0839999,12.1729512 18.7641564,11.8543999 18.7641564,11.3234811 C18.7641564,9.09362215 20.6832178,7.28849825 22.8155083,7.28849825 L23.1353519,7.28849825 L23.1353519,8.98743839" id="Fill-6"></path>
                    <path d="M5.86379886,9.30598967 C3.83812289,9.30598967 1.91906145,7.39468201 1.91906145,5.05863931 C1.91906145,2.72259661 3.62489384,0.811288947 5.86379886,0.811288947 C8.10270389,0.811288947 9.80853628,2.72259661 9.80853628,5.05863931 C9.80853628,7.39468201 7.99608936,9.30598967 5.86379886,9.30598967 L5.86379886,9.30598967 Z M5.86379886,2.51022909 C4.69103909,2.51022909 3.62489384,3.67825044 3.62489384,5.05863931 C3.62489384,6.43902818 4.69103909,7.60704953 5.86379886,7.60704953 C7.03655864,7.60704953 8.10270389,6.43902818 8.10270389,5.05863931 C8.10270389,3.67825044 7.14317316,2.51022909 5.86379886,2.51022909 L5.86379886,2.51022909 Z" id="Fill-7"></path>
                    <path d="M7.46301674,7.28849825 L7.78286031,7.28849825 C10.0217653,7.28849825 11.8342123,9.19980591 11.8342123,11.3234811 C11.8342123,11.8543999 11.5143687,12.1729512 10.9812961,12.1729512 C10.4482234,12.1729512 10.1283799,11.8543999 10.1283799,11.3234811 C10.1283799,9.94309223 9.06223461,8.98743839 7.78286031,8.98743839 L7.46301674,8.98743839 L7.46301674,7.28849825" id="Fill-8"></path>
                    <path d="M4.37119552,8.98743839 L4.05135194,8.98743839 C2.66536312,8.98743839 1.7058324,10.049276 1.7058324,11.3234811 L1.7058324,14.1904426 C1.7058324,14.7213614 1.38598882,15.0399127 0.852916198,15.0399127 C0.319843574,15.0399127 0,14.7213614 0,14.1904426 L0,11.3234811 C0,9.09362215 1.91906145,7.28849825 4.05135194,7.28849825 L4.37119552,7.28849825 L4.37119552,8.98743839" id="Fill-9"></path>
                </g>
            </g>
        </g>
    </g>
</svg>