<?xml version="1.0" encoding="UTF-8" standalone="no"?>
<svg width="23px" height="23px" viewBox="0 0 23 23" version="1.1" xmlns="http://www.w3.org/2000/svg" xmlns:xlink="http://www.w3.org/1999/xlink" xmlns:sketch="http://www.bohemiancoding.com/sketch/ns">
    <!-- Generator: Sketch 3.3.3 (12081) - http://www.bohemiancoding.com/sketch -->
    <title>Imported Layers</title>
    <desc>Created with Sketch.</desc>
    <defs></defs>
    <g id="Welcome" stroke="none" stroke-width="1" fill="none" fill-rule="evenodd" sketch:type="MSPage">
        <g id="MUSIC-LIST-NO-DASH" sketch:type="MSArtboardGroup" transform="translate(-145.000000, -16.000000)" fill="#FFFFFF" opacity="0.4">
            <g id="Group-Copy-7" sketch:type="MSLayerGroup">
                <g id="Imported-Layers" transform="translate(144.506383, 16.185567)" sketch:type="MSShapeGroup">
                    <path d="M11.6181113,0.605666667 C8.58564762,0.605666667 5.91713545,1.72790876 3.85497631,3.82010613 C1.73239143,5.97342779 0.580111111,8.76314071 0.580111111,11.6744037 C0.580111111,14.6160541 1.70200392,17.344992 3.8245888,19.4679262 C5.94717368,21.5905111 8.70684837,22.7427914 11.6181113,22.7427914 C14.5293743,22.7427914 17.3494747,21.5905111 19.5328346,19.4375387 C21.5949937,17.405767 22.686499,14.7068674 22.686499,11.6744037 C22.686499,8.67232747 21.5949937,5.94304029 19.5024471,3.85049364 C17.3798622,1.72790876 14.650575,0.605666667 11.6181113,0.605666667 L11.6181113,0.605666667 Z M11.6484988,2.60740008 C14.1350352,2.60740008 16.3487826,3.54731712 18.0773778,5.27591224 C19.7752361,6.97411986 20.6851149,9.21825477 20.6851149,11.6744037 C20.6851149,14.1609401 19.8056236,16.3443 18.107416,18.0124693 C16.3183951,19.7711027 14.0138345,20.711369 11.6484988,20.711369 C9.25277566,20.711369 7.00864075,19.7711027 5.28004563,18.0428569 C3.55179979,16.3139125 2.58114596,14.0397393 2.58114596,11.6744037 C2.58114596,9.2786805 3.55179979,7.00450737 5.28004563,5.24552474 C6.97825325,3.5172789 9.16196242,2.60740008 11.6484988,2.60740008 L11.6484988,2.60740008 Z" id="Fill-1"></path>
                    <path d="M11.5056426,9.83543553 C10.8804284,8.69503078 9.81372207,8.24166314 8.57551845,8.24166314 C6.77322489,8.24166314 5.33872496,9.51654134 5.33872496,11.6744037 C5.33872496,13.8689406 6.68730159,15.1074935 8.63699203,15.1074935 C9.88742051,15.1074935 10.9541268,14.4208057 11.5426665,13.3788983 L10.1692908,12.6799857 C9.86262151,13.4155729 9.397029,13.6359697 8.80848934,13.6359697 C7.79068248,13.6359697 7.32508997,12.7900094 7.32508997,11.6744037 C7.32508997,10.5587979 7.71733332,9.71283765 8.80848934,9.71283765 C9.10258453,9.71283765 9.69112419,9.8721101 10.0344681,10.6076974 L11.5056426,9.83543553" id="Fill-2"></path>
                    <path d="M17.8908613,9.83543553 C17.2656471,8.69503078 16.1989408,8.24166314 14.9607372,8.24166314 C13.1584436,8.24166314 11.7235944,9.51654134 11.7235944,11.6744037 C11.7235944,13.8689406 13.0725203,15.1074935 15.0218615,15.1074935 C16.2726392,15.1074935 17.3393455,14.4208057 17.9278852,13.3788983 L16.5545095,12.6799857 C16.2481895,13.4155729 15.7822477,13.6359697 15.1937081,13.6359697 C14.1759012,13.6359697 13.7099594,12.7900094 13.7099594,11.6744037 C13.7099594,10.5587979 14.102552,9.71283765 15.1937081,9.71283765 C15.4878032,9.71283765 16.0763429,9.8721101 16.4196868,10.6076974 L17.8908613,9.83543553" id="Fill-3"></path>
                </g>
            </g>
        </g>
    </g>
</svg>