<?xml version="1.0" encoding="UTF-8" standalone="no"?>
<svg width="163px" height="21px" viewBox="0 0 163 21" version="1.1" xmlns="http://www.w3.org/2000/svg" xmlns:xlink="http://www.w3.org/1999/xlink" xmlns:sketch="http://www.bohemiancoding.com/sketch/ns">
    <!-- Generator: Sketch 3.3.3 (12081) - http://www.bohemiancoding.com/sketch -->
    <title>Imported Layers Copy 5</title>
    <desc>Created with Sketch.</desc>
    <defs></defs>
    <g id="Welcome" stroke="none" stroke-width="1" fill="none" fill-rule="evenodd" sketch:type="MSPage">
        <g id="Main-menu-(login)" sketch:type="MSArtboardGroup" transform="translate(-28.000000, -19.000000)">
            <g id="Group" sketch:type="MSLayerGroup">
                <g id="Imported-Layers-Copy-5" transform="translate(27.479567, 18.000000)" sketch:type="MSShapeGroup">
                    <path d="M9.13017329,21.5853941 L6.81161088,21.5853941 L4.96263072,7.56097055 L3.11365056,21.5853941 L0.795088148,21.5853941 L3.90607063,1.21652552 L5.05067739,1.21652552 C5.93114413,1.21652552 6.07788859,1.76925124 6.16593527,2.32197696 L9.13017329,21.5853941" id="Fill-1" fill="#FFFFFF"></path>
                    <path d="M23.906006,19.1973016 C23.906006,20.5963059 22.7640674,21.6435757 21.3846695,21.6726665 L21.3846695,21.7017574 L19.7704804,21.7017574 C18.3323848,21.7017574 17.155761,20.6227521 17.155761,19.1973016 L17.155761,1.80098669 C17.1851099,1.48098759 17.44925,1.21652552 17.7720878,1.21652552 L19.2715493,1.21652552 L19.2715493,18.8217654 C19.2715493,19.4326728 19.7384635,19.9272169 20.3547902,19.9272169 L20.6802961,19.9272169 C21.2939547,19.9272169 21.7928859,19.4326728 21.7928859,18.8217654 L21.7928859,1.21652552 L23.906006,1.21652552 L23.906006,19.1973016" id="Fill-2" fill="#FFFFFF"></path>
                    <path d="M36.9022288,1.21652552 C38.3403244,1.21652552 39.4822631,2.35371241 39.5142801,3.77916296 L39.5142801,19.0227566 C39.4822631,20.4482072 38.3403244,21.5853941 36.9022288,21.5853941 L32.8200648,21.5853941 L32.8200648,1.21652552 L36.9022288,1.21652552 L36.9022288,1.21652552 Z M37.4278407,4.36097951 C37.4278407,3.604618 36.9022288,3.3110651 36.3125828,3.3110651 L34.933185,3.3110651 L34.933185,19.5173007 L36.3125828,19.5173007 C36.9022288,19.5173007 37.4278407,19.2263924 37.4278407,18.4435847 L37.4278407,4.36097951 L37.4278407,4.36097951 Z" id="Fill-3" fill="#FFFFFF"></path>
                    <path d="M50.1172341,1.21652552 C50.7335608,1.21652552 50.968352,1.68462338 50.968352,2.03371331 L50.968352,21.5853941 L49.4715585,21.5853941 C48.9726273,21.5853941 48.8845807,21.2944858 48.8552318,21.1490316 L48.8552318,1.21652552 L50.1172341,1.21652552" id="Fill-4" fill="#FFFFFF"></path>
                    <path d="M64.535544,1.01288972 C65.9416227,1.07107138 67.0862295,2.20561365 67.0862295,3.604618 L67.0862295,19.2263924 C67.0568806,20.6227521 65.9416227,21.7308482 64.535544,21.7890298 L62.921355,21.7890298 C61.4832593,21.7890298 60.3066356,20.6227521 60.2772867,19.2263924 L60.2772867,3.604618 C60.2772867,2.17916745 61.4512423,1.01288972 62.921355,1.01288972 L64.535544,1.01288972 L64.535544,1.01288972 Z M63.8285025,19.9536631 C64.4448293,19.9536631 64.9437604,19.459119 64.9437604,18.8217654 L64.9437604,3.98279876 C64.9437604,3.34280055 64.4448293,2.84825648 63.8285025,2.84825648 L63.5056647,2.84825648 C62.889338,2.87470269 62.3904069,3.36924676 62.3904069,3.98279876 L62.3904069,18.8217654 C62.3904069,19.4326728 62.889338,19.9272169 63.5056647,19.9536631 L63.8285025,19.9536631 L63.8285025,19.9536631 Z" id="Fill-5" fill="#FFFFFF"></path>
                    <path d="M81.4938671,6.33915579 L81.4938671,3.98279876 C81.4938671,3.34280055 80.9949359,2.84825648 80.3786092,2.84825648 C79.7622825,2.84825648 79.2633513,3.34280055 79.2633513,3.98279876 L79.2633513,5.9318842 C79.2633513,7.12460813 80.1731669,8.66642199 80.1731669,8.66642199 L82.6971716,13.3791361 C83.7243828,15.240949 83.6363361,16.6082179 83.6363361,16.6082179 L83.6363361,19.1973016 C83.6363361,20.6227521 82.4623805,21.7890298 80.9949359,21.7890298 L79.6742358,21.7890298 C78.265489,21.7308482 77.1502311,20.5963059 77.1208822,19.1973016 L77.1208822,17.102762 C77.1208822,16.433673 77.44372,16.1136738 77.7078601,15.9682197 C77.8839534,15.9100381 78.7350713,15.5318573 79.2633513,15.2991307 L79.2633513,18.8482116 C79.2633513,19.459119 79.7622825,19.9536631 80.3786092,19.9536631 C80.9949359,19.9536631 81.4938671,19.459119 81.4938671,18.8217654 L81.4938671,16.4918546 C81.4938671,15.2991307 80.5840514,13.728226 80.5840514,13.728226 L78.0600468,9.04460275 C77.0328356,7.18278979 77.1208822,5.81552089 77.1208822,5.81552089 L77.1208822,3.72098131 C77.1208822,2.29553076 78.2948379,1.01288972 79.7622825,1.01288972 L81.0829826,1.01288972 C82.4943974,1.04198055 83.6363361,2.32197696 83.6363361,3.72098131 L83.6363361,4.50643365 C83.6363361,5.17287806 83.3134983,5.49552179 83.0493583,5.64097593 C82.8732649,5.72824841 82.051496,6.10642917 81.4938671,6.33915579" id="Fill-6" fill="#68B8C1"></path>
                    <path d="M100.159762,2.73189317 C100.039698,2.99371062 99.7168605,3.28461889 99.041836,3.28461889 L97.3982981,3.28461889 C97.1048092,3.28461889 96.8993669,3.51734551 96.870018,3.77916296 L96.870018,21.5853941 L95.3732246,21.5853941 C94.8742934,21.5853941 94.7862468,21.2944858 94.7862468,21.1490316 L94.7862468,3.28461889 L91.8220087,3.28461889 L91.8220087,1.85916834 C91.8220087,1.50743379 92.1154976,1.21652552 92.4676843,1.21652552 L100.861467,1.21652552 L100.159762,2.73189317" id="Fill-7" fill="#68B8C1"></path>
                    <path d="M113.003904,21.5853941 L113.003904,14.1354976 C113.003904,13.1464094 112.475624,12.8264103 111.917995,12.8264103 L110.802737,12.8264103 L110.802737,21.5853941 L108.686949,21.5853941 L108.686949,1.21652552 L112.534322,1.21652552 C113.943069,1.21652552 115.117024,2.35371241 115.117024,3.77916296 L115.117024,10.0627817 C115.117024,10.0627817 115.205071,11.6627772 114.353953,11.866413 C115.175722,12.2736846 115.117024,13.7864076 115.117024,13.7864076 L115.117024,21.5853941 L113.003904,21.5853941 L113.003904,21.5853941 Z M111.917995,10.8482341 C112.475624,10.8482341 113.003904,10.6155074 113.003904,9.68460096 L113.003904,4.21552538 C113.003904,3.45916386 112.475624,3.16825558 111.917995,3.16825558 L110.802737,3.16825558 L110.802737,10.8482341 L111.917995,10.8482341 L111.917995,10.8482341 Z" id="Fill-8" fill="#68B8C1"></path>
                    <path d="M131.130847,19.5173007 C130.898724,20.0435802 130.546537,20.8581234 130.455822,21.0326683 C130.309078,21.2944858 129.988908,21.5853941 129.311215,21.5853941 L124.615393,21.5853941 L124.615393,1.80098669 C124.644742,1.48098759 124.908882,1.21652552 125.261068,1.21652552 L130.749311,1.21652552 L130.047606,2.73189317 C129.93021,2.99371062 129.607372,3.3110651 128.92968,3.3110651 L127.227444,3.3110651 C126.933955,3.3110651 126.731181,3.51734551 126.731181,3.80560917 L126.731181,9.85914592 L129.900861,9.85914592 C129.66607,10.3827808 129.311215,11.2264148 129.225837,11.4009598 C129.076424,11.6627772 128.785603,11.9536855 128.110579,11.9536855 L127.227444,11.9536855 C126.963304,11.9536855 126.731181,12.1864121 126.731181,12.4482296 L126.731181,19.5173007 L131.130847,19.5173007" id="Fill-9" fill="#68B8C1"></path>
                    <path d="M147.208703,21.5853941 L144.89014,21.5853941 L143.04116,7.56097055 L141.19218,21.5853941 L138.873618,21.5853941 L141.9846,1.21652552 L143.129207,1.21652552 C144.009674,1.21652552 144.156418,1.76925124 144.244465,2.32197696 L147.208703,21.5853941" id="Fill-10" fill="#68B8C1"></path>
                    <path d="M160.578457,21.5853941 L157.760963,12.4773204 L157.760963,21.5853941 L155.677192,21.5853941 L155.677192,2.00197786 C155.677192,1.36462427 156.117425,1.24826096 156.354885,1.21652552 L157.760963,1.21652552 L157.760963,8.63733117 L160.346334,1.27470717 L162.547501,1.27470717 L159.231076,10.4409625 L162.782292,21.5853941 L160.578457,21.5853941" id="Fill-11" fill="#68B8C1"></path>
                </g>
            </g>
        </g>
    </g>
</svg>