<?xml version="1.0" encoding="UTF-8" standalone="no"?>
<svg width="190px" height="113px" viewBox="0 0 190 113" version="1.1" xmlns="http://www.w3.org/2000/svg" xmlns:xlink="http://www.w3.org/1999/xlink" xmlns:sketch="http://www.bohemiancoding.com/sketch/ns">
    <!-- Generator: Sketch 3.3.3 (12081) - http://www.bohemiancoding.com/sketch -->
    <title>Imported Layers Copy</title>
    <desc>Created with Sketch.</desc>
    <defs></defs>
    <g id="Welcome" stroke="none" stroke-width="1" fill="none" fill-rule="evenodd" sketch:type="MSPage">
        <g id="Main-menu-(login)" sketch:type="MSArtboardGroup" transform="translate(-625.000000, -150.000000)">
            <g id="Imported-Layers-Copy" sketch:type="MSLayerGroup" transform="translate(623.500000, 150.140000)">
                <path d="M76.4867391,54.9307317 L73.2225217,57.615 L82.9844058,69.552561 L86.2486232,66.8654878 L76.4867391,54.9307317" id="Fill-1" fill="#3D94A3" sketch:type="MSShapeGroup"></path>
                <path d="M84.2375072,48.5832927 L80.4586232,51.6939024 L90.2205072,63.6286585 L94.0021884,60.5180488 L84.2375072,48.5832927" id="Fill-2" fill="#3D94A3" sketch:type="MSShapeGroup"></path>
                <path d="M51.2512899,75.4035366 L47.5535217,70.8876829 L107.226884,21.7854878 L110.924652,26.3041463 L51.2512899,75.4035366" id="Fill-3" fill="#68B8C1" sketch:type="MSShapeGroup"></path>
                <path d="M34.6448986,81.5546341 L27.6437536,72.9997561 L100.206159,13.2923171 L107.207304,21.85 L34.6448986,81.5546341" id="Fill-4" fill="#79C0C7" sketch:type="MSShapeGroup"></path>
                <path d="M12.8498841,85.8264634 L1.68665217,72.1807317 L89.2974638,0.0925609756 L100.463493,13.7354878 L12.8498841,85.8264634" id="Fill-5" fill="#8BC9CE" sketch:type="MSShapeGroup"></path>
                <path d="M114.569275,31.3389024 L117.950971,35.4704878 L71.4855217,73.7037805 L68.1038261,69.5721951 L114.569275,31.3389024" id="Fill-6" fill="#56AFBB" sketch:type="MSShapeGroup"></path>
                <path d="M120.767652,38.8812195 L124.152145,43.0128049 L77.6838986,81.2460976 L74.3022029,77.1145122 L120.767652,38.8812195" id="Fill-7" fill="#56AFBB" sketch:type="MSShapeGroup"></path>
                <path d="M116.152435,57.73 L119.416652,55.0457317 L109.654768,43.1109756 L106.387754,45.7952439 L116.152435,57.73" id="Fill-8" fill="#3D94A3" sketch:type="MSShapeGroup"></path>
                <path d="M108.39887,64.077439 L112.177754,60.9668293 L102.41587,49.0320732 L98.6369855,52.1426829 L108.39887,64.077439" id="Fill-9" fill="#3D94A3" sketch:type="MSShapeGroup"></path>
                <path d="M141.387884,37.2571951 L145.085652,41.7758537 L85.4122899,90.8752439 L81.7145217,86.3565854 L141.387884,37.2571951" id="Fill-10" fill="#68B8C1" sketch:type="MSShapeGroup"></path>
                <path d="M157.994275,31.1060976 L164.99542,39.6609756 L92.4302174,99.3684146 L85.4290725,90.8135366 L157.994275,31.1060976" id="Fill-11" fill="#79C0C7" sketch:type="MSShapeGroup"></path>
                <path d="M179.78929,26.8370732 L190.952522,40.48 L103.338913,112.568171 L92.1756812,98.9252439 L179.78929,26.8370732" id="Fill-12" fill="#8BC9CE" sketch:type="MSShapeGroup"></path>
                <path d="M78.0671014,81.3218293 L74.6854058,77.1902439 L121.153652,38.9569512 L124.535348,43.0913415 L78.0671014,81.3218293" id="Fill-13" fill="#56AFBB" sketch:type="MSShapeGroup"></path>
                <path d="M71.8687246,73.7823171 L68.487029,69.6479268 L114.955275,31.4146341 L118.336971,35.5490244 L71.8687246,73.7823171" id="Fill-14" fill="#56AFBB" sketch:type="MSShapeGroup"></path>
            </g>
        </g>
    </g>
</svg>