<?xml version="1.0" encoding="UTF-8" standalone="no"?>
<svg width="21px" height="24px" viewBox="0 0 21 24" version="1.1" xmlns="http://www.w3.org/2000/svg" xmlns:xlink="http://www.w3.org/1999/xlink" xmlns:sketch="http://www.bohemiancoding.com/sketch/ns">
    <!-- Generator: Sketch 3.3.3 (12081) - http://www.bohemiancoding.com/sketch -->
    <title>Page 1</title>
    <desc>Created with Sketch.</desc>
    <defs></defs>
    <g id="Welcome" stroke="none" stroke-width="1" fill="none" fill-rule="evenodd" sketch:type="MSPage">
        <g id="MUSIC-LIST-NO-DASH" sketch:type="MSArtboardGroup" transform="translate(-256.000000, -15.000000)" fill="#FFFFFF" opactiy="0.4">
            <g id="Group-Copy-7" sketch:type="MSLayerGroup">
                <g id="Imported-EPS" transform="translate(256.506383, 15.000000)" sketch:type="MSShapeGroup">
                    <path d="M6.7689,7.13390159 L18.9888,4.07552671 L18.9888,15.1142765 C18.3931,14.8651781 17.6502,14.7406289 16.882,14.7406289 C16.4105,14.7406289 15.5181,15.0127919 14.9477,15.3126326 C13.8828,15.8846364 13.2388,16.8026101 13.2388,17.7736326 C13.2388,18.2948941 13.4619,18.8668978 13.7839,19.2636101 C14.2048,19.7364358 14.8741,19.9855342 15.7665,19.9855342 C16.8314,19.9855342 17.9469,19.5127085 18.8393,18.7169775 C19.6581,17.9466176 20.079,16.9525305 20.079,15.7093449 L20.079,0 L5.6764,3.50582943 L5.6764,18.6177994 C5.1819,18.3940722 4.4873,18.269523 3.7191,18.269523 C3.2476,18.269523 2.7531,18.368701 2.208,18.5924283 C0.8441,19.1390609 0,20.1585192 0,21.2771556 C0,21.8007235 0.2231,22.3727273 0.5474,22.7694396 C0.9683,23.2422652 1.6629,23.4890572 2.5553,23.4890572 C4.0158,23.4890572 5.8259,22.4211631 6.3963,21.1779775 C6.5941,20.730523 6.7689,19.860985 6.7689,19.2405455 C6.7689,19.2405455 6.7689,19.860985 6.7689,19.2405455 L6.7689,7.13390159" id="Page-1"></path>
                </g>
            </g>
        </g>
    </g>
</svg>