<?xml version="1.0" encoding="UTF-8" standalone="no"?>
<svg width="24px" height="26px" viewBox="0 0 24 26" version="1.1" xmlns="http://www.w3.org/2000/svg" xmlns:xlink="http://www.w3.org/1999/xlink" xmlns:sketch="http://www.bohemiancoding.com/sketch/ns">
    <!-- Generator: Sketch 3.3.3 (12081) - http://www.bohemiancoding.com/sketch -->
    <title>Imported Layers</title>
    <desc>Created with Sketch.</desc>
    <defs></defs>
    <g id="Welcome" stroke="none" stroke-width="1" fill="none" fill-rule="evenodd" sketch:type="MSPage">
        <g id="MUSIC-LIST-NO-DASH" sketch:type="MSArtboardGroup" transform="translate(-371.000000, -15.000000)" fill="red">
            <g id="Group-Copy-7" sketch:type="MSLayerGroup">
                <path d="M388.254199,23.4986863 L390.33826,23.4986863 L390.33826,31.8976699 L388.254199,31.8976699 L388.254199,23.4986863 Z M375.699614,23.4986863 L377.783675,23.4986863 L377.783675,31.8976699 L375.699614,31.8976699 L375.699614,23.4986863 Z M371.506383,21.3800238 L373.590444,21.3800238 L373.590444,33.9911102 L371.506383,33.9911102 L371.506383,21.3800238 Z M392.422321,19.2613613 L394.506383,19.2613613 L394.506383,36.0845506 L392.422321,36.0845506 L392.422321,19.2613613 Z M379.867736,19.2613613 L381.951797,19.2613613 L381.951797,36.0845506 L379.867736,36.0845506 L379.867736,19.2613613 Z M384.060968,15.0744806 L386.145029,15.0744806 L386.145029,40.2966534 L384.060968,40.2966534 L384.060968,15.0744806 Z" id="Imported-Layers" sketch:type="MSShapeGroup"></path>
            </g>
        </g>
    </g>
</svg>